<svg xmlns="http://www.w3.org/2000/svg" fill="rgb(3 105 161)" viewBox="0 0 386.31 348.67"><path d="M203.18,436.82c13.9-30,33.92-53.91,61-71.71,26.68-17.52,56.06-27.16,88-27.07,48.31.12,91.55-14.48,131.57-43-1.61,3.5-2.69,6.18-4,8.73-36.36,68.66-92.18,112-168.25,128.6a202.13,202.13,0,0,1-37.14,4.23C250.87,437.28,227.38,436.82,203.18,436.82Z" transform="translate(-97.45 -88.35)"/><path d="M355.59,88.47c29.57-1.79,71.62,16.23,80.6,52.18,5.75,23-2,42-19.05,57.51-16.78,15.27-37.23,21.4-59.49,22.42a8.44,8.44,0,0,1-2.06-.46Z" transform="translate(-97.45 -88.35)"/><path d="M113.44,436.79h-16c1.22-4.3,2.17-8.41,3.53-12.39,32.53-95.41,97.44-155.93,195.3-180.59,18.44-4.65,37.42-6.43,56.45-6.31,31.64.19,59.08-9.83,82.55-33.52-3.73,10.25-6.91,19.31-10.41,28.26-.51,1.31-2.39,2.21-3.79,3A121.15,121.15,0,0,1,357,253.08c-117.09-.85-212.5,77.36-242.42,180.53C114.27,434.57,113.89,435.49,113.44,436.79Z" transform="translate(-97.45 -88.35)"/><path d="M131.35,436.9c4.94-12.06,8.83-23.75,14.32-34.65C179.4,335.33,232.61,292.87,305.88,276c16.46-3.78,33.2-4.81,50.07-5,34.06-.45,64.8-10.6,91.28-32.52,1.39-1.16,2.74-2.38,5-4.36-3.45,9.43-6.39,17.84-9.7,26.1-.65,1.61-2.63,2.89-4.26,3.89-25.42,15.44-53.27,22.75-82.77,22.52C260.74,285.87,179,347.75,149.87,433.1c-.92,2.7-2.05,4.13-5.21,3.88C140.71,436.65,136.71,436.9,131.35,436.9Z" transform="translate(-97.45 -88.35)"/><path d="M469.79,263.84c-3.17,8.57-5.92,16.36-9,24a9.69,9.69,0,0,1-3.78,4.27A184.58,184.58,0,0,1,375.31,319c-17.22,1.51-34.72,1.15-51.69,4-53.07,9-94,37.21-123.29,82.21-5.77,8.87-10.05,18.73-14.78,28.25-1.17,2.34-2.16,3.7-5.08,3.49-4.13-.31-8.31-.08-13.76-.08,4.54-9.76,8.2-19.21,13.12-27.94,33.57-59.53,84.29-94.24,152.1-103.26,13.47-1.8,27.26-1.16,40.85-2.27C408.81,300.5,440.78,287.29,469.79,263.84Z" transform="translate(-97.45 -88.35)"/></svg>